<svg id="visual" viewBox="0 0 900 600" width="900" height="600" xmlns="http://www.w3.org/2000/svg" xmlns:xlink="http://www.w3.org/1999/xlink" version="1.1"><g transform="translate(449.6762420182666 275.8211225341956)"><path d="M150.7 -163.4C189.1 -147.3 209.8 -94 197.9 -51.2C186.1 -8.3 141.8 24 120.5 77.7C99.2 131.5 100.9 206.7 77.7 216.4C54.5 226.2 6.4 170.4 -52.1 147.3C-110.7 124.3 -179.6 133.9 -196.3 110.6C-213 87.3 -177.4 31.2 -153.4 -13.6C-129.5 -58.3 -117.1 -91.6 -93.5 -110.2C-69.8 -128.9 -34.9 -133 10.6 -145.6C56.1 -158.2 112.3 -179.5 150.7 -163.4" fill="#BAC0B8"></path></g></svg>