<svg id="visual" viewBox="0 0 900 600" width="900" height="600" xmlns="http://www.w3.org/2000/svg" xmlns:xlink="http://www.w3.org/1999/xlink" version="1.1"><g transform="translate(456.05075413143066 265.7037238232374)"><path d="M120.7 -138.9C146.3 -122.4 150 -74.7 164 -24.6C178.1 25.6 202.5 78.3 183.3 100.4C164.1 122.6 101.3 114.1 46.4 139.3C-8.5 164.5 -55.6 223.2 -101.5 228.4C-147.5 233.6 -192.4 185.3 -200.9 133.8C-209.4 82.3 -181.5 27.6 -169 -27.4C-156.4 -82.4 -159.2 -137.7 -133.6 -154.2C-108 -170.7 -54 -148.3 -3.2 -144.5C47.6 -140.7 95.1 -155.4 120.7 -138.9" fill="#93A29B"></path></g></svg>