<svg id="visual" viewBox="0 0 900 600" width="900" height="600" xmlns="http://www.w3.org/2000/svg" xmlns:xlink="http://www.w3.org/1999/xlink" version="1.1"><g transform="translate(460.08084353022167 322.26619160681287)"><path d="M93.8 -105.2C122.8 -87.4 148.6 -59 175.3 -15C201.9 29 229.6 88.8 206.9 111.5C184.3 134.2 111.4 120 58.4 123C5.5 125.9 -27.5 146.1 -59.6 143.3C-91.7 140.6 -122.9 114.8 -157 79.3C-191.1 43.8 -228 -1.5 -234.4 -54.6C-240.9 -107.7 -216.9 -168.8 -172.7 -184C-128.6 -199.2 -64.3 -168.6 -16 -149.6C32.4 -130.6 64.7 -123.1 93.8 -105.2" fill="#E0E0DB"></path></g></svg>