<svg id="visual" viewBox="0 0 900 600" width="900" height="600" xmlns="http://www.w3.org/2000/svg" xmlns:xlink="http://www.w3.org/1999/xlink" version="1.1"><g transform="translate(473.31039241659096 318.58696387269316)"><path d="M83.9 -83.1C119.3 -70.2 166 -53.9 195.5 -15.4C225 23 237.2 83.5 210.7 114.5C184.3 145.5 119.2 147 71.2 140.6C23.2 134.2 -7.6 120 -57.5 118.8C-107.3 117.6 -176.2 129.6 -219 103.3C-261.9 77 -278.7 12.4 -269.5 -48.9C-260.4 -110.3 -225.3 -168.5 -176.1 -179C-126.8 -189.5 -63.4 -152.2 -19.6 -128.9C24.2 -105.5 48.4 -96 83.9 -83.1" fill="#4A666D"></path></g></svg>