<svg id="visual" viewBox="0 0 900 600" width="900" height="600" xmlns="http://www.w3.org/2000/svg" xmlns:xlink="http://www.w3.org/1999/xlink" version="1.1"><g transform="translate(441.4957703499896 282.6202619004843)"><path d="M136.3 -169C154.8 -147 132.8 -83.2 146.6 -23.1C160.5 37 210.1 93.5 205.4 134.5C200.7 175.5 141.6 201 85.8 210.1C30.1 219.3 -22.2 212.1 -70.8 194.4C-119.3 176.7 -164 148.6 -180.5 109.4C-196.9 70.1 -185.1 19.8 -176.3 -31.2C-167.4 -82.2 -161.5 -133.8 -132.6 -154C-103.7 -174.3 -51.9 -163.1 3.5 -167.3C58.9 -171.6 117.8 -191.1 136.3 -169" fill="#6C8482"></path></g></svg>