<svg id="visual" viewBox="0 0 900 600" width="900" height="600" xmlns="http://www.w3.org/2000/svg" xmlns:xlink="http://www.w3.org/1999/xlink" version="1.1"><g transform="translate(427.06760104178375 257.3508172198216)"><path d="M110.8 -116.2C145 -103.5 174.9 -69.8 192.3 -25.8C209.6 18.1 214.3 72.3 197.3 125.3C180.3 178.3 141.4 230.1 95.5 235C49.5 239.9 -3.6 198 -37.2 160.5C-70.8 123 -84.7 90 -104.3 58.9C-123.9 27.8 -149.1 -1.5 -158.3 -41.5C-167.4 -81.5 -160.5 -132.3 -131.5 -145.9C-102.4 -159.6 -51.2 -136 -6.4 -128.4C38.4 -120.7 76.7 -128.9 110.8 -116.2" fill="#2F4858"></path></g></svg>